<svg width="16" height="16" viewBox="0 0 16 16" fill="none" xmlns="http://www.w3.org/2000/svg">
    <g clip-path="url(#clip0_127_1300)">
        <rect width="16" height="16" rx="3" fill="white"/>
        <path d="M12.0381 1.49219V3.67236H5.96143V15H3.1875V1.49219H12.0381ZM5.00586 6.41846H8.16016C9.22396 6.41846 10.1393 6.59473 10.9062 6.94727C11.6732 7.2998 12.2638 7.7946 12.6782 8.43164C13.0926 9.06868 13.2998 9.81087 13.2998 10.6582C13.2998 11.3014 13.1823 11.889 12.9473 12.4209C12.7122 12.9466 12.369 13.4043 11.9175 13.7939C11.4722 14.1774 10.9341 14.4743 10.3032 14.6846C9.67236 14.8949 8.95801 15 8.16016 15H3.1875V1.49219H5.97998V12.8291H8.16016C8.69206 12.8291 9.13118 12.7301 9.47754 12.5322C9.82389 12.3343 10.0837 12.0715 10.2568 11.7437C10.4362 11.4097 10.5259 11.0417 10.5259 10.6396C10.5259 10.2562 10.4362 9.90983 10.2568 9.60059C10.0837 9.28516 9.82389 9.03776 9.47754 8.8584C9.13118 8.67904 8.69206 8.58936 8.16016 8.58936H5.00586V6.41846Z" fill="#FF5500"/>
    </g>
    <defs>
        <clipPath id="clip0_127_1300">
            <rect width="16" height="16" rx="3" fill="white"/>
        </clipPath>
    </defs>
</svg>
